# xmcd
#
# Track frame offsets:
#	150
#	13412
#	26437
#	36137
#	48178
#	60237
#	72194
#	85407
#	96502
#	108992
#	122331
#	134828
#	146097
#	156982
#	166645
#	179111
#	192929
#	205399
#	217434
#	230452
#	241900
#
# Disc length: 3355 seconds
#
# Revision: 1
# Processed by: cddbd v1.5.2PL0 Copyright (c) Steve Scherf et al.
# Submitted via: audiograbber 1.83.01
#
DISCID=370d1915
DTITLE=Drifters - Three Classic Albums Plus Singles and Bonus Tracks  [CD1)
DYEAR=2014
DGENRE=Oldies
TTITLE0=Without Love (There Is Nothing)
TTITLE1=Someday You'll Want Me To Want You
TTITLE2=Treasure Of Love
TTITLE3=I'm Not Worthy Of You
TTITLE4=The Bells Of St. Mary's
TTITLE5=White Christmas
TTITLE6=I Make Believe
TTITLE7=Seven Days
TTITLE8=Warm Your Heart
TTITLE9=Money Honey
TTITLE10=Watcha Gonna Do
TTITLE11=Such A Night
TTITLE12=Honey Love
TTITLE13=Thirty Days
TTITLE14=The Way I Feel
TTITLE15=Lucille
TTITLE16=Bip Bam
TTITLE17=Gone
TTITLE18=Everyone's Laughing
TTITLE19=Hot Ziggety
TTITLE20=There Goes My Baby
EXTD=
EXTT0=
EXTT1=
EXTT2=
EXTT3=
EXTT4=
EXTT5=
EXTT6=
EXTT7=
EXTT8=
EXTT9=
EXTT10=
EXTT11=
EXTT12=
EXTT13=
EXTT14=
EXTT15=
EXTT16=
EXTT17=
EXTT18=
EXTT19=
EXTT20=
PLAYORDER=
